<?xml version="1.0" encoding="UTF-8"?>
<svg width="34px" height="32px" viewBox="0 0 34 32" version="1.1" xmlns="http://www.w3.org/2000/svg" xmlns:xlink="http://www.w3.org/1999/xlink">
    <title>reach-icon-logo copy 4</title>
    <g id="Web-ui" stroke="none" stroke-width="1" fill="none" fill-rule="evenodd">
        <g id="about-us" transform="translate(-655.000000, -1925.000000)">
            <g id="reach-icon-logo-copy-4" transform="translate(655.023984, 1925.000000)">
                <path d="M28.372711,32 L5.48981312,32 C4.59153343,32 3.86305689,31.2718729 3.86305689,30.3735932 L3.86305689,11.8734338 L29.9994672,11.8734338 L29.9994672,30.3735932 C29.9994672,31.2718729 29.2709906,32 28.372711,32" id="Fill-19" fill="#3E4898"/>
                <path d="M25.9500461,28.8172738 L7.98584974,28.8172738 C7.46700674,28.8172738 7.04599272,28.3962598 7.04599272,27.8774168 L7.04599272,10.9687253 L16.9864655,2.18508021 L26.8899031,10.9687253 L26.8899031,27.8774168 C26.8899031,28.3962598 26.4692385,28.8172738 25.9500461,28.8172738" id="Fill-21" fill="#FEFEFE"/>
                <path d="M17.0047735,-6.14838322e-14 L16.9862559,0.0157225151 L16.9680877,-6.14838322e-14 L5.33633261e-14,14.6698053 C0.826654904,15.9552083 3.43868874,16.2745501 4.52773495,15.3888484 L16.9680877,4.55673426 L16.9680877,4.58678173 L16.9862559,4.571758 L17.6410113,5.11051618 L29.4451262,15.3888484 C30.5341724,16.2745501 33.1462063,15.9552083 33.9728612,14.6698053 L17.0047735,-6.14838322e-14 Z" id="Fill-23" fill="#3E4898"/>
                <path d="M15.0102851,13.881758 C15.0102851,15.1958108 13.9449974,16.2610986 12.6309445,16.2610986 C11.3168917,16.2610986 10.2516039,15.1958108 10.2516039,13.881758 C10.2516039,12.5677051 11.3168917,11.5024173 12.6309445,11.5024173 C13.9449974,11.5024173 15.0102851,12.5677051 15.0102851,13.881758" id="Fill-25" fill="#3E4898"/>
                <path d="M23.6842919,13.881758 C23.6842919,15.1958108 22.6190042,16.2610986 21.3049513,16.2610986 C19.9908984,16.2610986 18.9256107,15.1958108 18.9256107,13.881758 C18.9256107,12.5677051 19.9908984,11.5024173 21.3049513,11.5024173 C22.6190042,11.5024173 23.6842919,12.5677051 23.6842919,13.881758" id="Fill-27" fill="#3E4898"/>
                <path d="M21.0846963,21.3873023 C20.2615353,22.8082683 18.7284154,23.7669923 16.9681925,23.7669923 C15.2076202,23.7669923 13.6745003,22.8082683 12.8513393,21.3873023 L10.2518834,21.3873023 C11.2312214,24.1520193 13.8677125,26.1330562 16.9681925,26.1330562 C20.0683231,26.1330562 22.7048141,24.1520193 23.6841521,21.3873023 L21.0846963,21.3873023 Z" id="Fill-29" fill="#3E4898"/>
                <polygon id="Fill-31" fill="#E95197" points="15.4644213 15.9552083 19.2682217 18.1996847 15.4224946 20.3714881"/>
            </g>
        </g>
    </g>
</svg>